<!-- Canonical Skerry app icon — composed 1:1 from docs/new/Skerry Logo.html (Final mark + size ladder):
     rounded square (r≈24%) with the "night sea" radial background, the S signal mark inset ~0.667
     and centred. Same geometry the Android adaptive icon ports. Source of truth for all raster icons. -->
<svg xmlns="http://www.w3.org/2000/svg" viewBox="0 0 120 120">
  <defs>
    <radialGradient id="bg" cx="33.6" cy="21.6" r="150" gradientUnits="userSpaceOnUse">
      <stop offset="0" stop-color="#142634"/>
      <stop offset="0.52" stop-color="#0a141b"/>
      <stop offset="1" stop-color="#05090d"/>
    </radialGradient>
    <linearGradient id="gMain" x1="31" y1="32" x2="60" y2="84" gradientUnits="userSpaceOnUse">
      <stop stop-color="#7ff0e2"/>
      <stop offset="1" stop-color="#22b3a4"/>
    </linearGradient>
  </defs>
  <rect width="120" height="120" rx="28" fill="url(#bg)"/>
  <g fill="none" stroke-linecap="round" transform="translate(20,20) scale(0.6667)">
    <path d="M75 40 A26 26 0 0 1 75 80" stroke="#34d3c0" stroke-width="6.5" opacity="0.85"/>
    <path d="M84 29 A40 40 0 0 1 84 91" stroke="#34d3c0" stroke-width="6.5" opacity="0.45"/>
    <path d="M93 19 A54 54 0 0 1 93 101" stroke="#34d3c0" stroke-width="6.5" opacity="0.18"/>
    <path d="M60 44 C60 37 53 34 46 34 C36 34 31 40 31 47 C31 60 60 54 60 68 C60 77 53 81 45 81 C36 81 31 77 31 70" stroke="url(#gMain)" stroke-width="10.5"/>
  </g>
</svg>
